<?xml version="1.0" standalone="no"?>
<!DOCTYPE svg PUBLIC "-//W3C//DTD SVG 20010904//EN"
 "http://www.w3.org/TR/2001/REC-SVG-20010904/DTD/svg10.dtd">
<svg version="1.0" xmlns="http://www.w3.org/2000/svg"
 width="512.000000pt" height="512.000000pt" viewBox="0 0 512.000000 512.000000"
 preserveAspectRatio="xMidYMid meet">
<metadata>
Created by potrace 1.14, written by Peter Selinger 2001-2017
</metadata>
<g transform="translate(0.000000,512.000000) scale(0.100000,-0.100000)"
fill="#000000" stroke="none">
<path d="M665 5106 c-16 -8 -41 -25 -55 -38 -91 -84 -50 -244 70 -278 19 -5
112 -10 206 -10 l172 0 -1 -600 c0 -330 -2 -600 -4 -600 -2 0 -14 11 -26 23
-55 59 -157 107 -238 112 -299 19 -508 -286 -379 -554 45 -92 170 -189 264
-205 16 -3 30 -6 31 -8 2 -2 -21 -42 -51 -91 -97 -156 -183 -333 -228 -469
-61 -186 -78 -291 -79 -474 0 -127 2 -146 23 -188 44 -91 153 -131 242 -87 71
34 77 53 76 232 -1 207 32 367 115 549 l25 55 3 -365 c1 -201 2 -414 3 -475 0
-108 -11 -312 -18 -324 -2 -3 -7 -37 -10 -76 -4 -38 -8 -81 -10 -95 -2 -14 -7
-51 -11 -84 -4 -32 -8 -68 -10 -80 -4 -22 -14 -99 -20 -151 -2 -16 -6 -91 -10
-166 -7 -130 -6 -139 15 -176 70 -126 278 -95 309 46 5 25 13 93 16 151 5 98
14 184 21 220 1 8 3 30 3 48 1 29 17 48 18 20 0 -18 15 -219 28 -401 9 -117
27 -153 95 -186 72 -36 157 -23 208 32 28 30 40 69 37 127 -6 100 -16 267 -20
300 -2 19 -6 76 -10 125 -3 50 -8 115 -10 145 -20 286 -24 521 -10 607 6 34
10 239 9 462 0 221 3 398 7 394 4 -5 18 -39 32 -78 42 -119 73 -300 92 -535
12 -152 15 -171 30 -199 59 -114 246 -126 301 -18 16 30 22 151 10 212 -2 11
-7 54 -11 95 -13 140 -17 176 -30 250 -3 14 -7 41 -10 60 -3 19 -11 53 -17 75
-5 22 -12 50 -14 63 -26 139 -139 380 -235 498 -51 63 -176 180 -209 195 -19
9 -64 31 -100 48 -36 17 -71 31 -79 31 -9 0 -11 5 -5 18 5 9 10 328 11 707 1
380 3 711 3 738 l0 47 429 0 429 0 833 -833 c459 -458 844 -839 857 -847 l23
-15 0 -795 0 -795 -37 -80 c-82 -180 -94 -207 -94 -210 0 -2 -15 -36 -34 -77
-61 -132 -154 -339 -337 -749 -87 -197 -93 -233 -47 -302 32 -50 72 -70 138
-71 87 -1 119 25 180 151 28 56 50 104 50 107 0 3 15 38 34 78 18 40 57 126
86 190 29 65 56 118 59 118 3 0 5 -115 4 -255 -1 -179 2 -264 10 -283 29 -65
71 -98 141 -107 59 -8 121 20 156 72 l25 36 3 309 3 309 118 -238 c65 -131
136 -276 159 -323 63 -127 93 -156 175 -166 99 -12 189 76 181 177 -3 41 -30
99 -378 803 l-256 518 0 1809 0 1809 -1722 0 c-1438 -1 -1728 -3 -1753 -14z
m3138 -937 c-1 -336 -3 -613 -5 -614 -2 -2 -279 273 -617 611 l-614 614 619 0
619 0 -2 -611z"/>
</g>
</svg>
